<svg xmlns="http://www.w3.org/2000/svg" width="30" height="20" viewBox="0 0 162.732 136.026">
  <g transform="translate(-1777.068 -552)">
    <path d="M950.068,669.716v42.435H1104.8V669.716" transform="translate(831 -28.125)" fill="none" stroke="#000" stroke-linecap="round" stroke-width="14"/>
    <g transform="translate(1830 552)">
      <path d="M 28.00047874450684 115.0288772583008 L 7.686549663543701 86.03473663330078 L 15.27338027954102 86.03473663330078 L 19.27338027954102 86.03473663330078 L 19.27338027954102 82.03473663330078 L 19.27338027954102 4 L 36.72771835327148 4 L 36.72771835327148 82.03473663330078 L 36.72771835327148 86.03473663330078 L 40.72771835327148 86.03473663330078 L 48.31362152099609 86.03473663330078 L 28.00047874450684 115.0288772583008 Z" stroke="none"/>
      <path d="M 28.00041389465332 108.0577926635742 L 40.62726974487305 90.03473663330078 L 32.72771453857422 90.03473663330078 L 32.72771453857422 8 L 23.27338027954102 8 L 23.27338027954102 90.03473663330078 L 15.37306213378906 90.03473663330078 L 28.00041389465332 108.0577926635742 M 28.00054740905762 122 L 0 82.03473663330078 L 15.27338123321533 82.03473663330078 L 15.27338123321533 0 L 40.72771453857422 0 L 40.72771453857422 82.03473663330078 L 56 82.03473663330078 L 28.00054740905762 122 Z" stroke="none" fill="#000"/>
    </g>
  </g>
</svg>